<svg width="707" height="240" viewBox="0 0 707 240" fill="none" xmlns="http://www.w3.org/2000/svg">
<path d="M365.409 150.748C362.824 147.596 359.396 146.114 355.647 143.824C350.416 140.767 338.679 135.337 338.611 135.296L335.088 142.866C335.1 142.866 338.021 144.237 341.558 145.95C344.506 147.376 347.907 149.075 350.223 150.352H267.943C266.745 150.323 266.095 150.05 265.128 149.377C263.699 148.378 262.088 146.156 260.171 143.674C259.186 142.453 258.101 141.136 256.549 139.944C255.026 138.752 252.782 137.683 250.245 137.71C249.491 137.71 248.751 137.791 248.041 137.943C245.738 138.477 244.137 139.751 242.912 141C240.785 143.249 239.387 145.826 237.922 148.582C235.791 152.694 233.703 157.192 231.519 160.305C230.439 161.869 229.367 163.034 228.496 163.664C227.599 164.309 227.085 164.447 226.461 164.459C226.364 164.459 226.264 164.459 226.165 164.447C224.842 164.309 224.171 163.95 223.454 163.362C222.213 162.389 220.876 159.852 220.02 156.152C218.673 150.64 218.32 143.289 217.148 136.847C216.514 133.609 215.742 130.512 213.936 127.644C213.027 126.232 211.776 124.863 210.114 123.861C208.459 122.862 206.449 122.341 204.485 122.352C202.062 122.341 199.673 123.121 197.781 124.411C194.213 126.862 192.138 130.47 190.457 134.583C187.58 141.821 185.989 151.284 184.787 161.717C183.025 177.347 182.302 195.061 180.995 208.787C180.371 215.462 179.566 221.221 178.573 224.992C177.513 221.495 176.485 216.23 175.61 209.869C172.151 184.943 170.637 143.001 169.157 107.449C168.406 89.6394 167.654 73.4204 166.644 61.4914C166.132 55.5284 165.568 50.6594 164.833 46.9864C164.453 45.1354 164.077 43.6114 163.433 42.1184C163.093 41.3764 162.702 40.5964 161.9 39.6904C161.153 38.8404 159.548 37.6764 157.426 37.6764C157.088 37.6764 156.895 37.7044 156.824 37.7164H156.799C155.065 37.9094 153.831 38.7324 153.039 39.4314C151.472 40.8854 150.784 42.2694 149.992 43.8884C148.6 46.9164 147.377 50.8524 146.071 55.7484C141.566 72.7334 136.58 100.979 131.51 125.18C128.98 137.258 126.427 148.322 124.004 156.205C122.8 160.126 121.604 163.279 120.623 165.158C120.524 165.35 120.429 165.529 120.336 165.693C119.619 165.008 118.559 163.72 117.583 161.936C115.129 157.714 112.744 151.352 110.576 145.964C109.463 143.249 108.431 140.78 107.229 138.654C106.608 137.585 105.973 136.6 104.996 135.598C104.061 134.666 102.501 133.376 99.9311 133.336C97.9631 133.309 96.2111 134.322 95.2651 135.296C94.2621 136.298 93.6991 137.298 93.1921 138.34C90.0151 145.032 86.7131 147.87 84.5091 149.187C83.4021 149.844 82.5381 150.132 82.0281 150.255C81.7911 150.312 81.6401 150.338 81.5681 150.352H4.54912C-1.40588 152.627 -1.62588 158.214 4.54912 160.77H81.7431C82.4621 160.784 85.7341 160.606 89.8421 158.152C93.0691 156.246 96.7011 152.955 99.9901 147.663C100.345 148.486 100.705 149.377 101.076 150.297C103.009 155.081 105.202 161.003 107.937 166.063C109.329 168.6 110.834 170.944 112.815 172.945C114.742 174.879 117.5 176.702 121.028 176.717C121.495 176.717 121.899 176.689 122.224 176.649L122.313 176.634H122.324C123.822 176.442 125.024 175.799 125.909 175.127C127.631 173.781 128.587 172.287 129.543 170.6C131.27 167.434 132.73 163.376 134.235 158.399C139.425 141.109 144.615 112.782 149.481 88.5844C151.747 77.2874 153.938 66.8934 155.952 59.1744C156.755 67.4424 157.42 78.8074 158.013 91.6154C159.34 119.831 160.423 155.466 162.561 184.188C163.641 198.559 164.961 211.172 166.781 220.494C167.706 225.184 168.714 229.024 170.099 232.136C170.815 233.698 171.597 235.11 172.845 236.44C174.027 237.715 176.066 239.019 178.525 239.019H178.564C178.847 239.019 178.917 239.004 178.917 239.004H179.072L179.22 238.991C181.836 238.772 183.903 237.209 185.089 235.686C187.344 232.766 188.262 229.463 189.195 225.403C190.72 218.329 191.535 208.936 192.297 198.559C193.424 183.064 194.36 165.501 196.646 152.175C197.76 145.54 199.276 139.958 200.978 136.584C201.812 134.899 202.672 133.803 203.264 133.322C203.899 132.828 204.064 132.814 204.485 132.787C204.663 132.814 204.722 132.814 204.746 132.801C204.781 132.801 204.701 132.801 204.869 132.926C205.338 133.225 206.47 135.831 207.032 139.534C208.009 145.114 208.331 152.708 210.131 159.593C211.053 163.034 212.359 166.434 214.758 169.354C217.119 172.287 220.891 174.482 225.21 174.838C225.641 174.879 226.056 174.894 226.461 174.894C231.375 174.894 235.19 172.149 237.786 169.202C241.737 164.72 244.257 159.044 246.601 154.506C247.75 152.258 248.829 150.312 249.689 149.13C249.937 148.787 250.163 148.526 250.334 148.322C250.625 148.567 251.068 149.008 251.578 149.638C252.885 151.187 254.506 153.71 256.967 156.11C259.38 158.495 263.205 160.812 267.943 160.784C283.025 160.77 328.054 160.77 348.934 160.77C347.317 161.663 345.371 162.785 343.397 163.992C340.448 165.79 337.734 167.516 336.048 168.943L341.476 175.277C342.218 174.619 344.999 172.767 347.729 171.122C350.471 169.45 353.385 167.806 354.694 167.161C358.471 165.282 361.187 163.678 363.236 161.964C364.25 161.086 365.128 160.196 365.814 159.085C366.499 158.003 366.999 156.632 366.992 155.189C366.999 153.394 366.252 151.831 365.409 150.748Z" fill="#BE1E2D"/>
<path d="M102.247 45.6054L96.8321 73.0134C110.312 70.7774 117.053 64.1174 117.053 53.0324C117.053 47.3154 114.545 44.4554 109.53 44.4554C107.198 44.4554 104.77 44.8384 102.247 45.6054ZM89.5011 109.764C93.3031 110.914 96.5131 111.489 99.1321 111.489C103.349 111.489 106.734 109.493 109.29 105.5C111.494 102.049 112.597 98.1054 112.597 93.6644C112.597 86.7654 109.546 82.1334 103.445 79.7694C100.346 80.7924 97.5511 81.4624 95.0601 81.7814L89.5011 109.764ZM113.076 74.2104C124.224 77.6294 129.798 83.6024 129.798 92.1314C129.798 100.724 125.598 107.768 117.197 113.262C109.849 118.085 101.672 120.497 92.6641 120.497C91.7051 120.497 90.2751 120.393 88.3751 120.186C86.4741 119.978 85.0451 119.874 84.0871 119.874C83.3511 119.874 82.2421 120.01 80.7571 120.281C79.2711 120.553 78.1611 120.688 77.4271 120.688C73.3371 120.688 71.2931 119.22 71.2931 116.28C71.2931 114.939 71.5491 113.23 72.0601 111.153C80.1421 78.2523 84.1831 57.3614 84.1831 48.4804C84.1831 46.3084 83.6561 44.3284 82.6011 42.5394C89.8851 38.2264 99.6601 36.0704 111.926 36.0704C126.364 36.0704 133.583 40.7984 133.583 50.2534C133.583 59.8684 126.747 67.8554 113.076 74.2104Z" fill="#BE1E2D"/>
<path d="M200.854 111.441C205.869 111.441 209.83 106.426 212.737 96.3962C214.877 89.0172 215.947 81.9412 215.947 75.1692C215.947 66.9272 213.487 62.8072 208.568 62.8072C203.394 62.8072 199.336 67.8062 196.398 77.8042C194.257 85.0872 193.188 92.1792 193.188 99.0792C193.188 107.32 195.743 111.441 200.854 111.441ZM197.548 121.12C190.711 121.12 185.273 119.012 181.232 114.795C177.191 110.579 175.171 105.037 175.171 98.1692C175.171 87.2762 178.525 77.2612 185.233 68.1262C192.548 58.0952 201.461 53.0802 211.97 53.0802C218.614 53.0802 223.965 55.2522 228.022 59.5962C231.982 63.8132 233.963 69.2762 233.963 75.9842C233.963 86.7162 230.641 96.6992 223.997 105.931C216.714 116.057 207.898 121.12 197.548 121.12Z" fill="#BE1E2D"/>
<path d="M252.913 39.8553C257.225 38.2263 261.234 37.4123 264.94 37.4123C269.795 37.4123 272.223 39.2643 272.223 42.9673C272.223 45.3313 271.722 48.3803 270.722 52.1163L268.349 61.1223L261.965 93.4243C260.722 99.6853 260.1 104.477 260.1 107.799C260.1 111.41 261.059 114.476 262.976 116.999C259.269 119.331 255.676 120.497 252.194 120.497C245.933 120.497 242.803 117.606 242.803 111.824C242.803 109.077 243.601 103.695 245.199 95.6773L251.764 62.7113C253.456 54.2143 254.303 48.5923 254.303 45.8453C254.303 43.8323 253.839 41.8363 252.913 39.8553Z" fill="#BE1E2D"/>
<path d="M301.712 111.441C306.727 111.441 310.688 106.426 313.595 96.3962C315.734 89.0172 316.805 81.9412 316.805 75.1692C316.805 66.9272 314.345 62.8072 309.426 62.8072C304.252 62.8072 300.194 67.8062 297.256 77.8042C295.115 85.0872 294.045 92.1792 294.045 99.0792C294.045 107.32 296.601 111.441 301.712 111.441ZM298.406 121.12C291.569 121.12 286.131 119.012 282.09 114.795C278.049 110.579 276.029 105.037 276.029 98.1692C276.029 87.2762 279.383 77.2612 286.091 68.1262C293.406 58.0952 302.319 53.0802 312.828 53.0802C319.472 53.0802 324.823 55.2522 328.88 59.5962C332.84 63.8132 334.821 69.2762 334.821 75.9842C334.821 86.7162 331.499 96.6992 324.855 105.931C317.572 116.057 308.755 121.12 298.406 121.12Z" fill="#BE1E2D"/>
<path d="M384.678 70.6171C381.259 65.5711 377.57 63.0471 373.61 63.0471C368.849 63.0471 365.272 66.7681 362.876 74.2111C361.152 79.4821 360.289 85.1351 360.289 91.1731C360.289 94.7511 361.278 96.5391 363.26 96.5391C368.657 96.5391 375.797 87.8991 384.678 70.6171ZM343.806 115.035C348.694 122.828 354.746 126.726 361.966 126.726C366.757 126.726 370.574 124.394 373.418 119.731C375.526 116.217 377.187 111.17 378.401 104.589C379.104 99.7981 379.806 95.0061 380.509 90.2151C371.022 103.983 362.333 110.866 354.443 110.866C346.521 110.866 342.56 105.052 342.56 93.4251C342.56 83.2031 345.307 74.1631 350.802 66.3051C356.967 57.4881 364.952 53.0801 374.759 53.0801C379.327 53.0801 383.544 54.2621 387.409 56.6261C388.622 54.7091 390.955 53.7511 394.405 53.7511C397.855 53.7511 401.496 54.5821 405.329 56.2421C402.678 61.0661 400.586 68.6211 399.053 78.9061C398.126 85.3271 397.199 91.7481 396.274 98.1691C394.867 106.027 392.967 112.464 390.571 117.479C387.473 123.931 383.328 128.667 378.138 131.686C372.946 134.704 366.933 136.213 360.097 136.213C355.625 136.213 350.689 135.319 345.291 133.53C338.391 131.198 334.942 128.276 334.942 124.762C334.942 120.8 337.896 117.559 343.806 115.035Z" fill="#BE1E2D"/>
<path d="M420.781 46.0364C422.953 43.6734 426.259 40.1594 430.7 35.4944C434.405 31.7264 438.59 29.8414 443.254 29.8414C447.597 29.8414 451.526 30.2414 455.041 31.0384C452.517 32.0294 449.274 33.9464 445.314 36.7884C436.529 43.0824 429.901 46.2284 425.429 46.2284C424.726 46.2284 423.177 46.1644 420.781 46.0364ZM418.961 56.1944C423.369 54.5654 427.377 53.7504 430.987 53.7504C435.842 53.7504 438.27 55.6034 438.27 59.3094C438.27 61.0024 437.966 63.0314 437.36 65.3944C432.057 86.1584 429.406 100.293 429.406 107.799C429.406 111.441 430.364 114.507 432.281 116.999C428.575 119.331 424.981 120.497 421.5 120.497C415.239 120.497 412.108 117.606 412.108 111.824C412.108 106.235 413.481 97.9614 416.229 87.0044C418.976 76.0484 420.35 67.7744 420.35 62.1834C420.35 60.1714 419.886 58.1754 418.961 56.1944Z" fill="#BE1E2D"/>
<path d="M449.758 101.475C452.125 108.918 456.221 112.639 462.044 112.639C467.963 112.639 470.922 109.57 470.922 103.432C470.922 100.204 466.151 95.057 456.609 87.991C453.278 84.794 451.612 80.926 451.612 76.386C451.612 68.97 454.296 63.151 459.662 58.931C464.581 55.031 470.842 53.08 478.445 53.08C488.251 53.08 493.155 54.949 493.155 58.686C493.155 61.945 490.855 65.251 486.255 68.605C482.326 63.366 478.572 60.747 474.995 60.747C469.947 60.747 467.424 63.43 467.424 68.796C467.424 71.608 469.133 74.275 472.551 76.798L481.99 83.746C485.408 87.036 487.117 91.046 487.117 95.773C487.117 103.887 484.162 110.228 478.253 114.795C472.887 119.012 466.035 121.121 457.697 121.121C446.612 121.121 441.07 118.485 441.07 113.214C441.07 109.254 443.966 105.34 449.758 101.475Z" fill="#BE1E2D"/>
<path d="M510.521 72.8211H508.365C504.723 72.8211 501.145 73.5241 497.631 74.9291C497.471 73.3961 497.392 72.2781 497.392 71.5751C497.392 67.4231 498.956 64.7881 502.088 63.6691C503.653 63.0941 507.119 62.8071 512.486 62.8071C514.211 54.0231 515.073 48.3681 515.073 45.8451C515.073 43.8321 514.61 41.8361 513.683 39.8551C518.028 38.2261 522.037 37.4121 525.711 37.4121C530.566 37.4121 532.994 39.2651 532.994 42.9701C532.994 45.3021 532.45 48.6081 531.365 52.8881L528.873 62.8071H534.143C538.391 62.8071 543.008 62.3281 547.991 61.3691C547.576 69.1001 543.12 72.9651 534.623 72.9651C533.76 72.9651 532.466 72.9411 530.742 72.8931C529.016 72.8451 527.723 72.8211 526.86 72.8211C523.921 86.8131 522.452 96.2201 522.452 101.044C522.452 106.091 524.304 108.614 528.01 108.614C531.268 108.614 535.133 106.985 539.606 103.727C540.66 105.771 541.187 107.576 541.187 109.141C541.187 112.847 538.759 115.866 533.904 118.197C529.943 120.081 525.885 121.025 521.733 121.025C511.127 121.025 505.826 115.801 505.826 105.356C505.826 98.4881 507.39 87.6441 510.521 72.8211Z" fill="#BE1E2D"/>
<path d="M581.696 43.7844C578.278 45.4134 575.147 46.2284 572.304 46.2284C568.024 46.2284 565.884 45.0464 565.884 42.6824C565.884 41.8844 566.044 40.6864 566.363 39.0884C566.682 37.4924 566.842 36.2934 566.842 35.4954C566.842 34.9524 566.634 34.2974 566.219 33.5304C570.34 32.0294 573.822 31.2784 576.665 31.2784C581.329 31.2784 583.661 33.0514 583.661 36.5974C583.661 38.1634 583.006 40.5584 581.696 43.7844ZM560.087 56.1944C564.495 54.5654 568.503 53.7504 572.113 53.7504C576.968 53.7504 579.396 55.6034 579.396 59.3094C579.396 61.0024 579.092 63.0314 578.486 65.3944C573.183 86.1584 570.532 100.293 570.532 107.799C570.532 111.441 571.49 114.507 573.407 116.999C569.701 119.331 566.107 120.497 562.626 120.497C556.365 120.497 553.234 117.606 553.234 111.824C553.234 106.235 554.607 97.9614 557.355 87.0044C560.102 76.0484 561.476 67.7744 561.476 62.1844C561.476 60.1714 561.012 58.1754 560.087 56.1944Z" fill="#BE1E2D"/>
<path d="M631.502 104.11C631.981 105.9 632.221 107.321 632.221 108.375C632.221 112.56 628.802 115.882 621.967 118.341C616.76 120.194 611.585 121.12 606.442 121.12C592.834 121.12 586.03 114.508 586.03 101.283C586.03 88.8252 589.607 77.8842 596.763 68.4612C604.557 58.2072 614.492 53.0802 626.566 53.0802C636.373 53.0802 641.276 55.1402 641.276 59.2612C641.276 62.6792 638.178 66.3052 631.981 70.1382C629.394 64.6762 626.023 61.9452 621.871 61.9452C610.882 61.9452 605.388 73.4442 605.388 96.4442C605.388 105.9 608.422 110.627 614.492 110.627C619.603 110.627 625.273 108.455 631.502 104.11Z" fill="#BE1E2D"/>
<path d="M685.716 70.6171C682.01 65.6341 678.337 63.1421 674.695 63.1421C670.127 63.1421 666.279 68.2541 663.148 78.4751C660.656 86.5571 659.41 93.6331 659.41 99.7021C659.41 104.366 660.465 106.697 662.573 106.697C664.809 106.697 669.009 101.363 675.175 90.6941C679.71 82.9001 683.225 76.2081 685.716 70.6171ZM680.828 94.9581C671.245 112.4 662.397 121.12 654.283 121.12C645.882 121.12 641.682 115.211 641.682 103.391C641.682 92.4991 644.653 81.8141 650.594 71.3361C657.526 59.1651 666.038 53.0801 676.133 53.0801C680.797 53.0801 684.917 54.2621 688.495 56.6261C690.252 54.6781 692.664 53.7031 695.731 53.7031C699.436 53.7031 703.062 54.5501 706.608 56.2421C704.179 61.1621 701.911 69.0841 699.803 80.0091C697.855 90.2951 696.88 98.5691 696.88 104.829C696.88 109.397 697.695 113.405 699.324 116.856C696.513 119.283 693.286 120.497 689.646 120.497C682.904 120.497 679.535 116.776 679.535 109.333C679.535 105.5 679.966 100.708 680.828 94.9581Z" fill="#BE1E2D"/>
<path d="M168.829 12.204C168.829 15.436 167.641 18.248 165.266 20.644C162.888 23.036 160.038 24.23 156.715 24.23C153.387 24.23 150.537 23.094 148.162 20.82C145.784 18.551 144.599 15.675 144.599 12.204C144.599 8.85498 145.784 5.98498 148.162 3.59098C150.537 1.19798 153.387 -1.90735e-05 156.715 -1.90735e-05C160.038 -1.90735e-05 162.888 1.19798 165.266 3.59098C167.641 5.98498 168.829 8.85498 168.829 12.204Z" fill="#BE1E2D"/>
<path d="M406.113 138.946H425.05L423.259 145.287H422.634C422.663 144.957 422.677 144.662 422.677 144.403C422.677 143.195 422.325 142.26 421.621 141.599C420.916 140.938 419.722 140.556 418.04 140.456L412.799 158.185C412.511 159.177 412.368 159.911 412.368 160.385C412.368 160.816 412.548 161.165 412.907 161.431C413.266 161.697 413.992 161.838 415.086 161.851L414.934 162.499H403.244L403.46 161.851C404.653 161.851 405.519 161.629 406.059 161.183C406.598 160.738 407.097 159.738 407.557 158.185L412.799 140.456C410.987 140.513 409.473 140.909 408.259 141.642C407.044 142.376 405.932 143.591 404.926 145.287H404.258L406.113 138.946Z" fill="#BE1E2D"/>
<path d="M430.55 146.409L427.94 156.158C430.097 151.398 431.714 148.472 432.793 147.38C433.44 146.732 434.115 146.409 434.821 146.409C435.295 146.409 435.683 146.585 435.985 146.937C436.286 147.29 436.438 147.789 436.438 148.436C436.438 149.557 436.164 150.5 435.618 151.262C435.273 151.751 434.892 151.995 434.475 151.995C434 151.995 433.648 151.779 433.418 151.348C433.188 150.917 433.027 150.665 432.933 150.593C432.839 150.521 432.742 150.485 432.642 150.485C432.527 150.485 432.404 150.521 432.275 150.593C432.016 150.722 431.682 151.056 431.272 151.596C430.862 152.136 430.359 153.038 429.762 154.303C429.165 155.568 428.698 156.636 428.361 157.506C428.023 158.376 427.552 160.04 426.947 162.499H422.741L425.611 150.981C425.812 150.133 425.912 149.565 425.912 149.277C425.912 148.975 425.859 148.738 425.75 148.565C425.643 148.393 425.495 148.263 425.309 148.178C425.121 148.092 424.726 148.048 424.122 148.048L424.274 147.552L429.514 146.409H430.55Z" fill="#BE1E2D"/>
<path d="M447.459 149.946C447.459 149.011 447.314 148.336 447.027 147.919C446.812 147.631 446.531 147.487 446.187 147.487C445.826 147.487 445.453 147.66 445.064 148.005C444.288 148.724 443.45 150.179 442.552 152.373C441.653 154.565 441.204 156.46 441.204 158.055C441.204 158.675 441.305 159.116 441.506 159.383C441.707 159.648 441.93 159.781 442.175 159.781C442.706 159.781 443.238 159.487 443.771 158.897C444.532 158.034 445.216 156.985 445.819 155.748C446.912 153.577 447.459 151.642 447.459 149.946ZM453.023 146.646L449.659 158.185L449.292 159.608C449.263 159.781 449.249 159.903 449.249 159.975C449.249 160.119 449.299 160.242 449.4 160.342C449.5 160.443 449.602 160.493 449.702 160.493C449.946 160.493 450.284 160.313 450.716 159.954C450.888 159.796 451.305 159.263 451.967 158.357L452.57 158.66C451.751 160.17 450.874 161.269 449.939 161.96C449.004 162.65 447.998 162.995 446.92 162.995C446.258 162.995 445.755 162.822 445.41 162.477C445.064 162.133 444.893 161.701 444.893 161.183C444.893 160.723 445.079 159.882 445.453 158.66L445.862 157.258C444.525 159.558 443.238 161.19 442.002 162.154C441.283 162.715 440.514 162.995 439.694 162.995C438.63 162.995 437.86 162.556 437.387 161.679C436.912 160.802 436.675 159.817 436.675 158.724C436.675 157.085 437.174 155.209 438.174 153.094C439.173 150.981 440.478 149.285 442.088 148.005C443.426 146.941 444.677 146.409 445.841 146.409C446.488 146.409 447.009 146.595 447.405 146.969C447.8 147.343 448.092 148.026 448.278 149.018L448.904 146.883L453.023 146.646Z" fill="#BE1E2D"/>
<path d="M463.247 146.409L461.111 153.849C462.55 151.679 463.628 150.19 464.347 149.386C465.396 148.235 466.306 147.452 467.075 147.034C467.845 146.617 468.559 146.409 469.222 146.409C469.825 146.409 470.343 146.632 470.774 147.077C471.206 147.523 471.421 148.105 471.421 148.824C471.421 149.472 471.277 150.256 470.99 151.176L468.768 158.595C468.581 159.242 468.488 159.666 468.488 159.867C468.488 159.983 468.534 160.087 468.628 160.18C468.722 160.274 468.811 160.32 468.897 160.32C469.013 160.32 469.135 160.27 469.265 160.17C469.667 159.839 470.077 159.364 470.494 158.746C470.595 158.588 470.76 158.344 470.99 158.013L471.658 158.423C469.962 161.284 468.172 162.715 466.288 162.715C465.569 162.715 465.008 162.527 464.605 162.154C464.203 161.78 464.002 161.312 464.002 160.752C464.002 160.277 464.139 159.558 464.412 158.595L466.59 151.176C466.733 150.686 466.806 150.327 466.806 150.097C466.806 149.968 466.755 149.856 466.654 149.763C466.554 149.67 466.432 149.623 466.288 149.623C465.856 149.623 465.324 149.925 464.692 150.528C463.096 152.053 461.55 154.324 460.055 157.344L458.631 162.499H454.21L457.445 151.348C457.761 150.256 457.92 149.479 457.92 149.018C457.92 148.817 457.873 148.648 457.779 148.512C457.685 148.375 457.535 148.271 457.326 148.199C457.118 148.127 456.726 148.092 456.151 148.092L456.345 147.423L462.19 146.409H463.247Z" fill="#BE1E2D"/>
<path d="M486.757 146.409L486.002 151.779H485.355C485.269 150.385 484.844 149.288 484.082 148.49C483.319 147.692 482.508 147.293 481.645 147.293C481.112 147.293 480.674 147.448 480.329 147.757C479.985 148.066 479.812 148.443 479.812 148.889C479.812 149.263 479.887 149.612 480.038 149.935C480.19 150.259 480.524 150.694 481.041 151.24C482.867 153.21 483.978 154.565 484.373 155.305C484.769 156.047 484.967 156.841 484.967 157.689C484.967 158.609 484.733 159.475 484.266 160.288C483.798 161.1 483.105 161.755 482.185 162.251C481.264 162.747 480.308 162.995 479.316 162.995C478.64 162.995 477.813 162.858 476.835 162.585C476.189 162.398 475.699 162.305 475.368 162.305C475.081 162.305 474.858 162.347 474.7 162.434C474.541 162.52 474.362 162.707 474.16 162.995H473.514L474.376 157.193H474.916C475.332 158.602 475.717 159.605 476.069 160.202C476.422 160.799 476.893 161.273 477.483 161.626C478.071 161.977 478.64 162.154 479.187 162.154C479.819 162.154 480.344 161.953 480.761 161.55C481.178 161.147 481.386 160.673 481.386 160.127C481.386 159.58 481.249 159.052 480.977 158.541C480.703 158.031 480.077 157.236 479.1 156.158C477.734 154.691 476.842 153.555 476.426 152.75C476.123 152.175 475.973 151.52 475.973 150.787C475.973 149.536 476.426 148.494 477.331 147.66C478.237 146.826 479.51 146.409 481.149 146.409C481.867 146.409 482.752 146.531 483.802 146.775C484.319 146.905 484.736 146.97 485.053 146.97C485.498 146.97 485.858 146.783 486.131 146.409H486.757Z" fill="#BE1E2D"/>
<path d="M492.235 160.708C492.594 161.283 492.911 161.664 493.184 161.851C493.458 162.038 493.781 162.132 494.155 162.132C494.529 162.132 494.891 162.031 495.244 161.829C495.596 161.628 496.032 161.222 496.549 160.61C497.067 160 497.566 159.213 498.048 158.249C498.53 157.286 498.914 156.193 499.202 154.971C499.49 153.749 499.633 152.584 499.633 151.477C499.633 150.585 499.475 149.935 499.159 149.524C498.842 149.115 498.462 148.91 498.015 148.91C497.598 148.91 497.217 149.018 496.873 149.233C496.34 149.535 495.722 150.097 495.017 150.916L492.235 160.708ZM489.54 147.379L495.277 146.408H496.334L495.536 149.233C496.757 148.126 497.756 147.379 498.533 146.99C499.31 146.603 500.079 146.408 500.841 146.408C501.934 146.408 502.775 146.825 503.365 147.659C503.954 148.493 504.249 149.521 504.249 150.743C504.249 154.064 503.091 157.013 500.776 159.586C498.749 161.858 496.527 162.994 494.112 162.994C493.695 162.994 493.336 162.951 493.034 162.864C492.731 162.778 492.307 162.599 491.76 162.325L490.855 165.453C490.524 166.589 490.359 167.451 490.359 168.041C490.359 168.415 490.488 168.706 490.747 168.915C491.006 169.123 491.602 169.307 492.538 169.465L492.386 170.111H483.047L483.219 169.465C483.953 169.436 484.568 169.195 485.064 168.742C485.56 168.289 486.024 167.322 486.455 165.841L490.682 151.239C490.999 150.146 491.157 149.37 491.157 148.91C491.157 148.724 491.11 148.562 491.017 148.425C490.923 148.288 490.783 148.191 490.596 148.134C490.409 148.076 489.992 148.047 489.345 148.047L489.54 147.379Z" fill="#BE1E2D"/>
<path d="M516.133 147.314C515.515 147.314 515.004 147.495 514.602 147.854C513.796 148.586 512.883 150.294 511.862 152.976C510.841 155.658 510.331 158.077 510.331 160.234C510.331 160.766 510.492 161.205 510.817 161.549C511.14 161.895 511.525 162.067 511.97 162.067C512.415 162.067 512.812 161.931 513.156 161.658C513.674 161.241 514.303 160.306 515.043 158.853C515.784 157.401 516.392 155.798 516.866 154.043C517.341 152.29 517.578 150.679 517.578 149.212C517.578 148.609 517.43 148.141 517.136 147.81C516.841 147.48 516.507 147.314 516.133 147.314ZM516.845 146.409C517.75 146.409 518.606 146.621 519.411 147.044C520.216 147.469 520.824 148.055 521.234 148.802C521.644 149.55 521.849 150.384 521.849 151.304C521.849 153.174 521.327 155.046 520.284 156.923C519.242 158.799 517.862 160.281 516.144 161.366C514.425 162.452 512.703 162.995 510.978 162.995C509.396 162.995 508.174 162.524 507.312 161.582C506.448 160.64 506.017 159.494 506.017 158.142C506.017 156.532 506.341 155.022 506.987 153.613C507.635 152.204 508.45 150.978 509.436 149.935C510.42 148.892 511.557 148.044 512.844 147.39C514.13 146.736 515.464 146.409 516.845 146.409Z" fill="#BE1E2D"/>
<path d="M531.339 146.409L528.729 156.158C530.886 151.398 532.503 148.472 533.582 147.38C534.229 146.732 534.904 146.409 535.61 146.409C536.084 146.409 536.472 146.585 536.774 146.937C537.075 147.29 537.227 147.789 537.227 148.436C537.227 149.557 536.953 150.5 536.407 151.262C536.062 151.751 535.681 151.995 535.264 151.995C534.789 151.995 534.437 151.779 534.207 151.348C533.977 150.917 533.816 150.665 533.722 150.593C533.628 150.521 533.531 150.485 533.431 150.485C533.316 150.485 533.193 150.521 533.064 150.593C532.805 150.722 532.471 151.056 532.061 151.596C531.651 152.136 531.148 153.038 530.551 154.303C529.954 155.568 529.487 156.636 529.15 157.506C528.812 158.376 528.341 160.04 527.736 162.499H523.53L526.4 150.981C526.601 150.133 526.701 149.565 526.701 149.277C526.701 148.975 526.648 148.738 526.539 148.565C526.432 148.393 526.284 148.263 526.098 148.178C525.91 148.092 525.515 148.048 524.911 148.048L525.063 147.552L530.303 146.409H531.339Z" fill="#BE1E2D"/>
<path d="M546.976 142.16L545.574 146.884H547.86L547.235 148.889H545.013L542.101 158.962C541.914 159.58 541.821 160.055 541.821 160.386C541.821 160.529 541.874 160.658 541.983 160.773C542.09 160.889 542.209 160.946 542.338 160.946C542.525 160.946 542.727 160.859 542.943 160.687C543.474 160.285 544.092 159.58 544.797 158.573L545.401 158.962C544.61 160.342 543.733 161.359 542.77 162.014C541.806 162.668 540.865 162.995 539.945 162.995C539.154 162.995 538.538 162.794 538.1 162.391C537.662 161.989 537.443 161.478 537.443 160.859C537.443 160.198 537.593 159.336 537.895 158.271L540.656 148.889H538.284L538.628 147.596C540.11 147.049 541.361 146.413 542.381 145.686C543.403 144.961 544.632 143.785 546.07 142.16H546.976Z" fill="#BE1E2D"/>
<path d="M558.126 149.946C558.126 149.011 557.981 148.336 557.694 147.919C557.479 147.631 557.198 147.487 556.854 147.487C556.493 147.487 556.12 147.66 555.731 148.005C554.955 148.724 554.117 150.179 553.219 152.373C552.32 154.565 551.871 156.46 551.871 158.055C551.871 158.675 551.972 159.116 552.173 159.383C552.374 159.648 552.597 159.781 552.842 159.781C553.373 159.781 553.905 159.487 554.438 158.897C555.199 158.034 555.883 156.985 556.486 155.748C557.579 153.577 558.126 151.642 558.126 149.946ZM563.69 146.646L560.326 158.185L559.959 159.608C559.93 159.781 559.916 159.903 559.916 159.975C559.916 160.119 559.966 160.242 560.067 160.342C560.167 160.443 560.269 160.493 560.369 160.493C560.613 160.493 560.951 160.313 561.383 159.954C561.555 159.796 561.972 159.263 562.634 158.357L563.237 158.66C562.418 160.17 561.541 161.269 560.606 161.96C559.671 162.65 558.665 162.995 557.587 162.995C556.925 162.995 556.422 162.822 556.077 162.477C555.731 162.133 555.56 161.701 555.56 161.183C555.56 160.723 555.746 159.882 556.12 158.66L556.529 157.258C555.192 159.558 553.905 161.19 552.669 162.154C551.95 162.715 551.181 162.995 550.361 162.995C549.297 162.995 548.527 162.556 548.054 161.679C547.579 160.802 547.342 159.817 547.342 158.724C547.342 157.085 547.841 155.209 548.841 153.094C549.84 150.981 551.145 149.285 552.755 148.005C554.093 146.941 555.344 146.409 556.508 146.409C557.155 146.409 557.676 146.595 558.072 146.969C558.467 147.343 558.759 148.026 558.945 149.018L559.571 146.883L563.69 146.646Z" fill="#BE1E2D"/>
<path d="M573.915 146.409L571.779 153.849C573.218 151.679 574.296 150.19 575.015 149.386C576.064 148.235 576.974 147.452 577.743 147.034C578.513 146.617 579.227 146.409 579.89 146.409C580.493 146.409 581.011 146.632 581.442 147.077C581.874 147.523 582.089 148.105 582.089 148.824C582.089 149.472 581.945 150.256 581.658 151.176L579.436 158.595C579.249 159.242 579.156 159.666 579.156 159.867C579.156 159.983 579.202 160.087 579.296 160.18C579.39 160.274 579.479 160.32 579.565 160.32C579.681 160.32 579.803 160.27 579.933 160.17C580.335 159.839 580.745 159.364 581.162 158.746C581.263 158.588 581.428 158.344 581.658 158.013L582.326 158.423C580.63 161.284 578.84 162.715 576.956 162.715C576.237 162.715 575.676 162.527 575.273 162.154C574.871 161.78 574.67 161.312 574.67 160.752C574.67 160.277 574.807 159.558 575.08 158.595L577.258 151.176C577.401 150.686 577.474 150.327 577.474 150.097C577.474 149.968 577.423 149.856 577.322 149.763C577.222 149.67 577.1 149.623 576.956 149.623C576.524 149.623 575.992 149.925 575.36 150.528C573.764 152.053 572.218 154.324 570.723 157.344L569.299 162.499H564.878L568.113 151.348C568.429 150.256 568.588 149.479 568.588 149.018C568.588 148.817 568.541 148.648 568.447 148.512C568.353 148.375 568.203 148.271 567.994 148.199C567.786 148.127 567.394 148.092 566.819 148.092L567.013 147.423L572.858 146.409H573.915Z" fill="#BE1E2D"/>
<path d="M595.957 149.428C595.957 148.724 595.816 148.209 595.536 147.886C595.256 147.562 594.936 147.401 594.576 147.401C594.202 147.401 593.8 147.587 593.369 147.961C592.549 148.709 591.689 150.2 590.791 152.437C589.893 154.673 589.443 156.56 589.443 158.098C589.443 158.645 589.54 159.051 589.734 159.317C589.929 159.583 590.147 159.716 590.393 159.716C590.81 159.716 591.219 159.53 591.622 159.156C592.6 158.279 593.566 156.769 594.522 154.626C595.478 152.484 595.957 150.751 595.957 149.428ZM603.592 138.407L597.963 157.839C597.603 159.062 597.424 159.795 597.424 160.039C597.424 160.169 597.467 160.281 597.553 160.374C597.64 160.467 597.739 160.514 597.854 160.514C598.042 160.514 598.265 160.42 598.523 160.234C598.955 159.903 599.479 159.284 600.098 158.379L600.724 158.724C599.084 161.571 597.287 162.994 595.331 162.994C594.642 162.994 594.105 162.811 593.725 162.445C593.344 162.077 593.153 161.607 593.153 161.032C593.153 160.5 593.304 159.731 593.606 158.724L594.124 156.934C592.686 159.493 591.435 161.198 590.371 162.045C589.551 162.678 588.76 162.994 587.998 162.994C587.136 162.994 586.405 162.639 585.809 161.927C585.212 161.215 584.914 160.184 584.914 158.831C584.914 157.106 585.295 155.406 586.057 153.731C586.819 152.056 587.703 150.657 588.71 149.535C589.716 148.414 590.673 147.613 591.578 147.131C592.484 146.65 593.376 146.408 594.253 146.408C594.698 146.408 595.102 146.502 595.461 146.689C595.82 146.875 596.223 147.221 596.669 147.724L597.963 143.389C598.265 142.324 598.416 141.563 598.416 141.103C598.416 140.829 598.311 140.596 598.103 140.402C597.894 140.207 597.618 140.111 597.272 140.111C597.114 140.111 596.913 140.125 596.669 140.154L596.841 139.485L602.557 138.407H603.592Z" fill="#BE1E2D"/>
<path d="M612.954 147.314C612.336 147.314 611.825 147.495 611.423 147.854C610.617 148.586 609.704 150.294 608.683 152.976C607.662 155.658 607.152 158.077 607.152 160.234C607.152 160.766 607.313 161.205 607.638 161.549C607.961 161.895 608.346 162.067 608.791 162.067C609.236 162.067 609.633 161.931 609.977 161.658C610.495 161.241 611.124 160.306 611.864 158.853C612.605 157.401 613.213 155.798 613.687 154.043C614.162 152.29 614.399 150.679 614.399 149.212C614.399 148.609 614.251 148.141 613.957 147.81C613.662 147.48 613.328 147.314 612.954 147.314ZM613.666 146.409C614.571 146.409 615.427 146.621 616.232 147.044C617.037 147.469 617.645 148.055 618.055 148.802C618.465 149.55 618.67 150.384 618.67 151.304C618.67 153.174 618.148 155.046 617.105 156.923C616.063 158.799 614.683 160.281 612.965 161.366C611.246 162.452 609.524 162.995 607.799 162.995C606.217 162.995 604.995 162.524 604.133 161.582C603.269 160.64 602.838 159.494 602.838 158.142C602.838 156.532 603.162 155.022 603.808 153.613C604.456 152.204 605.271 150.978 606.257 149.935C607.241 148.892 608.378 148.044 609.665 147.39C610.951 146.736 612.285 146.409 613.666 146.409Z" fill="#BE1E2D"/>
<path d="M633.531 162.995H632.905C632.933 162.046 632.948 161.327 632.948 160.838C632.948 159.516 632.847 157.606 632.646 155.112C632.445 152.617 632.222 150.953 631.977 150.119C631.776 149.501 631.51 149.055 631.179 148.781C630.964 148.595 630.683 148.501 630.339 148.501C630.136 148.501 629.899 148.522 629.627 148.565V147.94L635.407 146.409C636.557 149.572 637.118 153.613 637.09 158.53C638.786 156.92 639.958 155.611 640.605 154.604C641.252 153.599 641.576 152.758 641.576 152.081C641.576 151.55 641.374 151.007 640.971 150.453C640.569 149.899 640.317 149.508 640.217 149.277C640.116 149.048 640.066 148.796 640.066 148.522C640.066 147.919 640.263 147.416 640.659 147.013C641.054 146.61 641.554 146.409 642.158 146.409C642.791 146.409 643.287 146.61 643.646 147.013C644.121 147.573 644.358 148.242 644.358 149.018C644.358 149.824 644.218 150.611 643.937 151.381C643.657 152.149 643.172 153.059 642.481 154.109C641.792 155.158 641.022 156.107 640.174 156.956C638.621 158.538 636.406 160.551 633.531 162.995Z" fill="#BE1E2D"/>
<path d="M652.403 138.407C653.122 138.407 653.729 138.659 654.225 139.162C654.721 139.665 654.969 140.269 654.969 140.973C654.969 141.678 654.717 142.278 654.215 142.774C653.712 143.27 653.107 143.518 652.403 143.518C651.713 143.518 651.12 143.27 650.624 142.774C650.128 142.278 649.88 141.678 649.88 140.973C649.88 140.269 650.124 139.665 650.613 139.162C651.101 138.659 651.698 138.407 652.403 138.407ZM653.481 146.409L649.923 158.746C649.735 159.451 649.642 159.918 649.642 160.148C649.642 160.263 649.692 160.378 649.793 160.493C649.893 160.608 650.002 160.666 650.117 160.666C650.318 160.666 650.512 160.579 650.699 160.407C651.231 159.975 651.856 159.199 652.576 158.077L653.179 158.423C651.424 161.47 649.563 162.995 647.593 162.995C646.845 162.995 646.249 162.783 645.803 162.358C645.357 161.934 645.134 161.399 645.134 160.752C645.134 160.32 645.235 159.774 645.436 159.112L647.852 150.808C648.082 150.018 648.197 149.422 648.197 149.018C648.197 148.76 648.086 148.53 647.863 148.328C647.639 148.127 647.341 148.026 646.967 148.026C646.781 148.026 646.572 148.034 646.342 148.048L646.558 147.358L652.446 146.409H653.481Z" fill="#BE1E2D"/>
<path d="M666.055 149.428C666.055 148.724 665.914 148.209 665.634 147.886C665.354 147.562 665.034 147.401 664.674 147.401C664.3 147.401 663.898 147.587 663.467 147.961C662.647 148.709 661.787 150.2 660.889 152.437C659.991 154.673 659.541 156.56 659.541 158.098C659.541 158.645 659.638 159.051 659.832 159.317C660.027 159.583 660.245 159.716 660.491 159.716C660.908 159.716 661.317 159.53 661.72 159.156C662.698 158.279 663.664 156.769 664.62 154.626C665.576 152.484 666.055 150.751 666.055 149.428ZM673.69 138.407L668.061 157.839C667.701 159.062 667.522 159.795 667.522 160.039C667.522 160.169 667.565 160.281 667.651 160.374C667.738 160.467 667.837 160.514 667.952 160.514C668.14 160.514 668.363 160.42 668.621 160.234C669.053 159.903 669.577 159.284 670.196 158.379L670.822 158.724C669.182 161.571 667.385 162.994 665.429 162.994C664.74 162.994 664.203 162.811 663.823 162.445C663.442 162.077 663.251 161.607 663.251 161.032C663.251 160.5 663.402 159.731 663.704 158.724L664.222 156.934C662.784 159.493 661.533 161.198 660.469 162.045C659.649 162.678 658.858 162.994 658.096 162.994C657.234 162.994 656.503 162.639 655.907 161.927C655.31 161.215 655.012 160.184 655.012 158.831C655.012 157.106 655.393 155.406 656.155 153.731C656.917 152.056 657.801 150.657 658.808 149.535C659.814 148.414 660.771 147.613 661.676 147.131C662.582 146.65 663.474 146.408 664.351 146.408C664.796 146.408 665.2 146.502 665.559 146.689C665.918 146.875 666.321 147.221 666.767 147.724L668.061 143.389C668.363 142.324 668.514 141.563 668.514 141.103C668.514 140.829 668.409 140.596 668.201 140.402C667.992 140.207 667.716 140.111 667.37 140.111C667.212 140.111 667.011 140.125 666.767 140.154L666.939 139.485L672.655 138.407H673.69Z" fill="#BE1E2D"/>
<path d="M683.547 149.946C683.547 149.011 683.402 148.336 683.115 147.919C682.9 147.631 682.619 147.487 682.275 147.487C681.914 147.487 681.541 147.66 681.152 148.005C680.376 148.724 679.538 150.179 678.64 152.373C677.741 154.565 677.292 156.46 677.292 158.055C677.292 158.675 677.393 159.116 677.594 159.383C677.795 159.648 678.018 159.781 678.263 159.781C678.794 159.781 679.326 159.487 679.859 158.897C680.62 158.034 681.304 156.985 681.907 155.748C683 153.577 683.547 151.642 683.547 149.946ZM689.111 146.646L685.747 158.185L685.38 159.608C685.351 159.781 685.337 159.903 685.337 159.975C685.337 160.119 685.387 160.242 685.488 160.342C685.588 160.443 685.69 160.493 685.79 160.493C686.034 160.493 686.372 160.313 686.804 159.954C686.976 159.796 687.393 159.263 688.055 158.357L688.658 158.66C687.839 160.17 686.962 161.269 686.027 161.96C685.092 162.65 684.086 162.995 683.008 162.995C682.346 162.995 681.843 162.822 681.498 162.477C681.152 162.133 680.981 161.701 680.981 161.183C680.981 160.723 681.167 159.882 681.541 158.66L681.95 157.258C680.613 159.558 679.326 161.19 678.09 162.154C677.371 162.715 676.602 162.995 675.782 162.995C674.718 162.995 673.948 162.556 673.475 161.679C673 160.802 672.763 159.817 672.763 158.724C672.763 157.085 673.262 155.209 674.262 153.094C675.261 150.981 676.566 149.285 678.176 148.005C679.514 146.941 680.765 146.409 681.929 146.409C682.576 146.409 683.097 146.595 683.493 146.969C683.888 147.343 684.18 148.026 684.366 149.018L684.992 146.883L689.111 146.646Z" fill="#BE1E2D"/>
<path d="M703.067 146.409L702.312 151.779H701.665C701.579 150.385 701.154 149.288 700.392 148.49C699.629 147.692 698.818 147.293 697.955 147.293C697.422 147.293 696.984 147.448 696.639 147.757C696.295 148.066 696.122 148.443 696.122 148.889C696.122 149.263 696.197 149.612 696.348 149.935C696.5 150.259 696.834 150.694 697.351 151.24C699.177 153.21 700.288 154.565 700.683 155.305C701.079 156.047 701.277 156.841 701.277 157.689C701.277 158.609 701.043 159.475 700.576 160.288C700.108 161.1 699.415 161.755 698.495 162.251C697.574 162.747 696.618 162.995 695.626 162.995C694.95 162.995 694.123 162.858 693.145 162.585C692.499 162.398 692.009 162.305 691.678 162.305C691.391 162.305 691.168 162.347 691.01 162.434C690.851 162.52 690.672 162.707 690.47 162.995H689.824L690.686 157.193H691.226C691.642 158.602 692.027 159.605 692.379 160.202C692.732 160.799 693.203 161.273 693.793 161.626C694.381 161.977 694.95 162.154 695.497 162.154C696.129 162.154 696.654 161.953 697.071 161.55C697.488 161.147 697.696 160.673 697.696 160.127C697.696 159.58 697.559 159.052 697.287 158.541C697.013 158.031 696.387 157.236 695.41 156.158C694.044 154.691 693.152 153.555 692.736 152.75C692.433 152.175 692.283 151.52 692.283 150.787C692.283 149.536 692.736 148.494 693.641 147.66C694.547 146.826 695.82 146.409 697.459 146.409C698.177 146.409 699.062 146.531 700.112 146.775C700.629 146.905 701.046 146.97 701.363 146.97C701.808 146.97 702.168 146.783 702.441 146.409H703.067Z" fill="#BE1E2D"/>
</svg>
