<?xml version="1.0" encoding="UTF-8"?>
<svg id="Layer_1" xmlns="http://www.w3.org/2000/svg" version="1.1" viewBox="0 0 866.4 249.9">
  <!-- Generator: Adobe Illustrator 30.5.1, SVG Export Plug-In . SVG Version: 2.1.4 Build 3)  -->
  <defs>
    <style>
      .st0 {
        fill: #1f6dc1;
      }

      .st1 {
        fill: #1e1c1c;
      }

      .st2 {
        fill: #fefefe;
      }
    </style>
  </defs>
  <g>
    <path class="st1" d="M498.3,201.5l12.4,33.8c-11.5,2.4-22.5.4-33.7,1.1l-11.3-35.4-48-.4-11.6,35.7h-59.2s-35.9-57.9-35.9-57.9l-13.5.3v57.4c-.1,0-33.6.1-33.6.1V85.5s65.5.5,65.5.5c15.9.1,29.1,8.8,36.6,22.4,5.6,13.3,6,27.7,1.1,41.3-5.1,10.8-14.1,18.5-25.7,22.6l35.5,53.6,46.6-140.4h35.5s39.3,116,39.3,116ZM333.7,147.9c4.6-4.3,5.2-10,5.6-15.3.9-12.6-7.3-22.5-19.9-22.7l-21.7-.3v44.9c0,0,21.2-.2,21.2-.2,5.3,0,10.8-2.7,14.8-6.4ZM459.6,176.8l-18.3-58.2-18.4,58.8,36.6-.6Z"/>
    <path class="st2" d="M333.7,147.9c-4,3.7-9.5,6.3-14.8,6.4l-21.3.2v-44.9c0,0,21.8.3,21.8.3,12.6.2,20.9,10,19.9,22.7s-1,11.1-5.6,15.3Z"/>
    <polygon class="st2" points="459.6 176.8 423 177.5 441.3 118.7 459.6 176.8"/>
  </g>
  <g>
    <g>
      <path class="st1" d="M224.7,155.8c8.2,3.8,17.8,6.3,23.4,14.7,11.1,16.6,8.5,39.4-5.3,53.6-8.4,7.4-18.7,11.8-30.2,11.9l-68.5.5V85.5s62.6.3,62.6.3c7.7,0,14.7,2.4,21.5,5.3,12.8,6.2,19.9,19.1,18.6,33.4.3,13.9-8.3,25.3-22.3,31.2ZM217,125.9c-.5-18.4-21-16.6-39-16.3v35.8s22.4-.4,22.4-.4c10.2-1.1,18.2-7.9,16.6-19.1ZM221.8,201.8c3.6-8,3.3-16.9-1.3-23.9-4.6-5.2-10.9-8-17.9-8.1l-24.8-.4v42c0,0,26-.1,26-.1,7.1,0,13.6-3.6,17.9-9.5Z"/>
      <path class="st2" d="M221.8,201.8c-4.3,5.9-10.8,9.5-17.9,9.5h-25.9c0,.1,0-41.9,0-41.9l24.8.4c6.9.1,13.3,3,17.9,8.1,4.5,7,4.9,15.8,1.3,23.9Z"/>
      <path class="st2" d="M217,125.9c1.6,11.2-6.4,18.1-16.6,19.1l-22.4.4v-35.8c18-.3,38.5-2.1,39,16.3Z"/>
    </g>
    <g>
      <path class="st1" d="M113,187.6l17.3,1.1c-1.1,16.2-8.4,31.4-21.6,41.1-11.8,8.6-27.8,9.8-42.6,8.8-28.4-1.9-52.1-19.8-61-47.2-7.6-23.5-6.7-49.3,2.7-72.2,16.1-39.5,61.8-45.4,98-28.2l-9,25.6c-9.1-5-17.9-7.6-27.5-7.1-22.2,2.1-31.7,23.3-32.5,44.9-.6,16.1,2.7,31.7,13.4,44.1s20.4,13.9,32.4,12.5,26.1-9.2,30.5-23.5Z"/>
      <g>
        <path class="st0" d="M95.8,171.5c-10.2,2.5-18.6-2.6-20.6-12.2-3.5-16.7,8.1-32.6,25.2-34.4s7.2.3,9.3-1.9c4.5-4.8,6.8-11.6,7.8-18.1l3.2-20.9c3.3-21.9,7.3-38.6,31.9-42.9l16.9-3c16.2-2.9,23-22.1,27.9-38.1,1.6,19.8-9.4,41.4-30.1,45.7l-15.6,3.3c-9.3,2-15.6,8.7-18.4,17.7-5.2,16.5-1.7,37.2-9.7,56.1l-5.7,10.6c4.4,16.7-5,33.8-22,38ZM91.7,143.5c3,0,5.1-2.6,5.4-4.6s-1.7-4.5-3.7-5.2-3.9.8-5.7,2.3-2.1,3.6-.9,5.4,2.6,2.1,5,2.1Z"/>
        <path class="st2" d="M91.7,143.5c-2.4,0-4.3-1.1-5-2.1-1.2-1.8-.8-4,.9-5.4s3.5-3.1,5.7-2.3,4,2.9,3.7,5.2-2.4,4.5-5.4,4.6Z"/>
      </g>
    </g>
  </g>
  <g>
    <path class="st0" d="M510.7,235.3l-12.4-33.8c.8-.6,1.5-1,2.4-1h36c1.1,6.2,2.7,12.2,7.4,16.4s12.6,5.3,19.5,4.6c10.9-1.1,18.6-8.9,19.6-19.7s-.1-15.1-5.5-20.6-10.1-6.6-16.1-6.8l-14.7-.5v-26.4c7.3,0,13.9.2,20.4-2.2,7.5-2.7,11.6-8.8,11.5-16.9s-1-10.4-4.6-14.1-8.3-4.7-13.6-5.1c-11.4-.9-19.6,6.5-20,18.2h-35.1c.2-14,5.9-27.7,17.3-35.7,17.6-12.2,50.6-12.1,70.3-3.1,13.8,6.2,22.5,18.6,22.5,33.7s-2.7,23.3-12,30.2l-11.7,8.6,8.8,4.9c9.4,5.2,14.2,13.8,17.4,23.9,0-16.6-2.4-31.8.7-47.4l4.1-20.7c3.9-12.7,11.2-24.4,22.7-31.2,19.1-11.3,51.7-10.9,69.4,1.3s26.5,44,24.8,69.3c-2.2,3.2-6.7,7.4-6.8,12.8-4.2-3.2-4.1-6.7-6.5-9.9-4.9-6.5-13.4-8-21.1-4.6.4-22.4-2.3-48.7-26.1-47.6s-21.2,12.2-23.6,27c-3.2,20.2-3.8,47.2,2.6,66.3s12.1,16.4,23.3,16.3,18.1-7.1,20.7-17l7.2-4.2c9.9,9.1,18.6-.5,21.2,1.4s3.9,2.9,7.1,3.9c-4.7,20-17.2,36.8-37.5,41.7-15.1,3.7-30.7,3.3-45.5-1.5s-15.8-8.4-21.6-15.3c-8.5-10.3-11.2-22.6-14.5-35.6,1,21-7.8,38.4-26,47.8-10.9,5.6-22.8,6.9-35.2,7-17.7.2-33.6-4.9-46.9-14.3Z"/>
    <path class="st1" d="M773.2,193.9c8.1-4,14.8-9.8,19.9-16.7s7-4.5,10.7-6.6,7.3-4.3,12.9-2.3,8.1,5.1,6.8,11.3c-2.2,10.5-11.9,18.9-22.9,19.3s-11-4-12-11.3c-7.2,6-15.9,13.9-21.5,9.9s-2.3-3.2-2.2-5.3l.7-9.8c0-1.2-.4-2.3-.9-2.7s-2-.6-3,0c-17.4,8.8-26.1,32.1-25.1,8.2-7.5,5.2-16.5,11.8-21,7s-2.2-5.1-2.3-8.8c-6.3,7.3-16.8,14.5-21.4,10.6-6.5-5.5,2-25.1,18-30.7s7.4-.4,9.6,2.3.8,2.3.4,3c-.7,1.3-2.3,1.5-3.7.3-5.5-4.7-19.1,7-19.5,18.7s11.3-1.8,18.5-13.2,6.2-4.1,6.8-1.8-4.8,16.7.5,16,9.8-5.5,13.9-8.9c7.5-6.2,3.9-12,9.2-14.5s6.3-.6,5.6,1.5l-5.9,16.8c8.6-6.5,24.3-18.3,27.6-12.2s-3.7,15.1.4,19.8ZM817.5,180.6c.7-2.8-.2-5.3-1.9-6.7s-4.5-2.2-6-.5-3.5,1-5.1,1.6c-7,2.5-10.9,14.2-6.4,18.3s17-2.7,19.4-12.7Z"/>
    <path class="st1" d="M865.1,187.2l-15.8,5.3c-6.8,13.3-25.6,19-25.1,11.4s.6-3.4,2.2-4.5l13.3-8.6-12.5-6.2c-1.6-.8-2.7-2.3-2.8-3.7s.9-3,2.3-4.1c7.3-5.8,17.6-13.8,19.3-8.5s-8.5,5-13.1,11.4c1.4,3.7,8.6,3.9,14.6,8.5l16.8-4.2c1.1-.3,1.8.5,2,1.1s-.3,1.9-1.3,2.2ZM840.4,195.8c-3.3.3-6.6,2.7-9.2,5.5,3.8-.1,6.8-1.3,9.2-5.5Z"/>
    <path class="st2" d="M817.5,180.6c-2.4,10-14.7,16.9-19.4,12.7s-.6-15.7,6.4-18.3,3.3.5,5.1-1.6,4.7-.6,6,.5,2.6,4,1.9,6.7Z"/>
    <path class="st2" d="M840.4,195.8c-2.4,4.2-5.4,5.4-9.2,5.5,2.6-2.8,5.9-5.2,9.2-5.5Z"/>
  </g>
</svg>